# xmcd
#
# Track frame offsets:
#	150
#	12454
#	25051
#	37903
#	50529
#	63858
#	76561
#	84541
#	93726
#	106491
#	115664
#	128161
#	139122
#	148990
#	159112
#	171297
#	180927
#	193919
#	209631
#	221595
#
# Disc length: 3113 seconds
#
# Revision: 1
# Processed by: cddbd v1.5.2PL0 Copyright (c) Steve Scherf et al.
# Submitted via: audiograbber 1.83.01
#
DISCID=120c2714
DTITLE=Arthur Blanch - Early Sessions 1952-1962
DYEAR=2004
DGENRE=Country
TTITLE0=Sister of Sioux City Sue
TTITLE1=Heading Back Home
TTITLE2=The Golden Rocket
TTITLE3=Shearin' Time
TTITLE4=Broken Dreams
TTITLE5=It Makes No Difference
TTITLE6=Wagon Rock
TTITLE7=Please Help Me I'm Falling
TTITLE8=I Love you Because
TTITLE9=I Know One
TTITLE10=How Cam She Yodel
TTITLE11=Pay Me No Mind
TTITLE12=China Doll
TTITLE13=If I Had Television On My Telephone
TTITLE14=Our Best Man
TTITLE15=Turn Back The Hands Of Time
TTITLE16=Somebody Else Is Taking MY Place
TTITLE17=Theres Something New In My World
TTITLE18=Daddys Little Girl
TTITLE19=Home
EXTD=Arthur Blanch Samplings From "The Early Sessions" 1952-1962
EXTT0=
EXTT1=
EXTT2=
EXTT3=
EXTT4=
EXTT5=
EXTT6=
EXTT7=
EXTT8=
EXTT9=
EXTT10=
EXTT11=
EXTT12=
EXTT13=
EXTT14=
EXTT15=
EXTT16=
EXTT17=
EXTT18=
EXTT19=
PLAYORDER=
